{"accessors":[{"bufferView":0,"byteOffset":0,"componentType":5126,"count":420,"max":[1,0,1],"min":[-1,-0.5,-1],"normalized":false,"type":"VEC3"},{"bufferView":1,"byteOffset":0,"componentType":5126,"count":420,"max":[1,0,1,1],"min":[-1,-0.000016,-1,1],"normalized":false,"type":"VEC4"},{"bufferView":2,"byteOffset":0,"componentType":5126,"count":420,"max":[1,1,1],"min":[-1,-1,-1],"normalized":false,"type":"VEC3"},{"bufferView":3,"byteOffset":0,"componentType":5126,"count":420,"max":[1,1],"min":[0,0],"normalized":false,"type":"VEC2"},{"bufferView":4,"byteOffset":0,"componentType":5125,"count":420,"max":[419],"min":[0],"normalized":false,"type":"SCALAR"},{"bufferView":5,"byteOffset":0,"componentType":5126,"count":6144,"max":[1,0.25,1],"min":[-1,0,-1],"normalized":false,"type":"VEC3"},{"bufferView":6,"byteOffset":0,"componentType":5126,"count":6144,"max":[1,0.025342,1,1],"min":[-0.999954,-0.023758,-1,1],"normalized":false,"type":"VEC4"},{"bufferView":7,"byteOffset":0,"componentType":5126,"count":6144,"max":[0.995053,0.999999,0.995054],"min":[-0.995055,0.097956,-0.995055],"normalized":false,"type":"VEC3"},{"bufferView":8,"byteOffset":0,"componentType":5126,"count":6144,"max":[1,0.5],"min":[0,0],"normalized":false,"type":"VEC2"},{"bufferView":9,"byteOffset":0,"componentType":5125,"count":6144,"max":[6143],"min":[0],"normalized":false,"type":"SCALAR"}],"asset":{"generator":"Godot Engine v4.0.2.stable.official@7a0977ce2c558fe6219f0a14f8bd4d05aea8f019","version":"2.0"},"bufferViews":[{"buffer":0,"byteLength":5040,"byteOffset":0},{"buffer":0,"byteLength":6720,"byteOffset":5040},{"buffer":0,"byteLength":5040,"byteOffset":11760},{"buffer":0,"byteLength":3360,"byteOffset":16800},{"buffer":0,"byteLength":1680,"byteOffset":20160},{"buffer":0,"byteLength":73728,"byteOffset":21840},{"buffer":0,"byteLength":98304,"byteOffset":95568},{"buffer":0,"byteLength":73728,"byteOffset":193872},{"buffer":0,"byteLength":49152,"byteOffset":267600},{"buffer":0,"byteLength":24576,"byteOffset":316752}],"buffers":[{"byteLength":341328,"uri":"pedestal0.bin"}],"materials":[{"extensions":{},"pbrMetallicRoughness":{"baseColorFactor":[0.039546225219965,0.0423114001750946,0.18116420507431,1],"metallicFactor":0,"roughnessFactor":1}},{"extensions":{},"pbrMetallicRoughness":{"baseColorFactor":[0.637596845626831,0.637596845626831,0,1],"metallicFactor":0,"roughnessFactor":1}}],"meshes":[{"extras":{"targetNames":[]},"primitives":[{"attributes":{"NORMAL":2,"POSITION":0,"TANGENT":1,"TEXCOORD_0":3},"indices":4,"material":0,"mode":4},{"attributes":{"NORMAL":7,"POSITION":5,"TANGENT":6,"TEXCOORD_0":8},"indices":9,"material":1,"mode":4}]}],"nodes":[{"children":[1,2],"extensions":{},"mesh":0,"name":"Pedestal2"},{"extensions":{},"name":"socle","translation":[0,-0.25,0]},{"extensions":{},"name":"torus"}],"scene":0,"scenes":[{"nodes":[0]}]}